<?xml version="1.0" standalone="no"?>
<!DOCTYPE svg PUBLIC "-//W3C//DTD SVG 20010904//EN"
 "http://www.w3.org/TR/2001/REC-SVG-20010904/DTD/svg10.dtd">
<svg version="1.0" xmlns="http://www.w3.org/2000/svg"
 width="1080.000000pt" height="1080.000000pt" viewBox="0 0 1080.000000 1080.000000"
 preserveAspectRatio="xMidYMid meet">
<metadata>
Created by potrace 1.14, written by Peter Selinger 2001-2017
</metadata>
<g transform="translate(0.000000,1080.000000) scale(0.100000,-0.100000)"
fill="#000000" stroke="none">
<path d="M2765 8124 c-5 -2 -62 -10 -125 -19 -115 -15 -144 -20 -190 -29 -14
-3 -38 -8 -55 -12 -66 -13 -323 -98 -406 -134 -612 -265 -1004 -777 -1094
-1425 -22 -162 -22 -459 1 -569 2 -12 7 -37 10 -56 10 -65 53 -216 82 -286 58
-140 137 -261 251 -386 39 -43 78 -92 87 -110 91 -182 304 -392 544 -538 221
-134 585 -282 1030 -418 32 -9 29 -10 -25 -6 -33 3 -80 9 -105 14 -25 5 -56
12 -70 14 -114 19 -383 107 -565 183 -138 58 -379 176 -445 218 -22 14 -42 25
-46 25 -3 0 -26 14 -51 30 -24 17 -46 30 -48 30 -2 0 -43 25 -90 55 -46 30
-87 55 -90 55 -6 0 -89 -168 -547 -1100 -172 -350 -179 -367 -176 -418 3 -51
5 -54 43 -75 22 -12 41 -25 43 -29 2 -4 49 -33 105 -65 56 -31 104 -58 106
-60 3 -2 -3 -19 -12 -38 -9 -20 -17 -60 -17 -90 l0 -53 133 -76 c315 -179 626
-305 1035 -421 87 -24 169 -46 182 -49 14 -3 88 -19 165 -35 151 -31 189 -37
368 -61 45 -6 96 -12 112 -15 147 -20 582 -27 740 -12 446 43 829 169 1140
375 127 84 316 271 401 397 116 172 151 248 240 515 52 156 66 207 78 275 23
138 34 231 36 295 0 17 18 -8 61 -85 33 -61 67 -117 75 -126 8 -8 14 -19 14
-23 0 -12 139 -207 230 -321 47 -60 102 -132 120 -160 207 -307 507 -591 834
-788 82 -50 308 -162 366 -182 3 -1 17 -7 32 -13 91 -38 345 -105 443 -117 28
-3 57 -8 65 -10 68 -17 430 -26 551 -14 185 20 186 20 445 73 10 3 80 23 154
46 598 183 1079 543 1328 992 48 86 112 236 112 262 0 13 14 56 30 94 51 121
54 115 -126 222 -86 51 -163 101 -172 110 -10 9 -163 104 -342 210 -179 105
-337 201 -352 211 -15 10 -29 19 -32 19 -6 0 -601 353 -668 396 l-37 24 -36
-113 c-82 -253 -168 -377 -334 -485 -63 -40 -149 -81 -188 -89 -158 -31 -311
-35 -405 -10 -40 10 -54 22 -101 81 -127 160 -236 439 -262 671 -4 33 -9 71
-11 85 -5 32 -5 287 0 320 2 14 7 54 11 90 3 36 10 81 15 100 5 19 11 53 15
74 21 142 183 368 345 481 180 126 469 154 720 69 58 -20 155 -72 173 -93 8
-9 29 -59 46 -111 41 -125 44 -129 70 -106 20 18 21 18 31 -9 l11 -28 24 23
23 22 40 -83 c22 -46 54 -127 71 -179 17 -52 35 -101 40 -108 6 -11 90 44 342
223 184 131 352 251 374 267 63 47 217 157 245 176 25 17 412 292 418 297 2 2
-8 28 -22 58 -14 29 -26 56 -26 59 0 2 21 20 48 38 26 18 49 35 50 36 6 4
-112 224 -161 300 -102 160 -231 306 -392 446 -90 77 -254 191 -342 237 -21
11 -110 67 -197 125 -87 58 -163 106 -168 106 -4 0 -25 10 -46 23 -139 86
-462 199 -662 232 -19 3 -60 10 -91 16 -123 21 -273 32 -454 31 -518 -1 -924
-111 -1350 -366 -84 -50 -124 -76 -210 -138 -71 -51 -231 -192 -311 -274 -301
-307 -514 -659 -650 -1072 -24 -72 -62 -207 -70 -247 -2 -11 -8 -43 -14 -71
-23 -111 -39 -220 -48 -322 -4 -48 -7 -178 -6 -289 l1 -201 -76 77 c-88 90
-145 137 -256 212 -44 30 -82 56 -85 59 -3 3 -23 14 -45 26 -117 61 -147 82
-139 95 3 5 -1 6 -8 4 -8 -3 -23 3 -33 13 -11 10 -28 21 -37 25 -10 3 -18 11
-18 17 0 6 -4 8 -10 5 -5 -3 -10 -1 -10 4 0 6 -5 11 -10 11 -6 0 -34 15 -63
33 -68 43 -242 131 -289 147 -21 6 -38 15 -38 20 0 5 -10 10 -22 12 -13 2 -23
8 -23 15 0 6 -4 15 -8 20 -5 4 -8 3 -7 -2 5 -23 -2 -25 -32 -8 -18 9 -37 17
-43 18 -11 1 -33 10 -82 31 -17 8 -36 14 -43 14 -6 0 -9 4 -6 9 4 5 -4 7 -16
3 -16 -4 -19 -2 -13 8 5 9 4 11 -4 6 -14 -9 -111 24 -111 37 0 4 -4 5 -10 2
-11 -7 -120 25 -120 35 0 3 -10 6 -21 7 -12 1 -33 12 -48 25 -26 23 -26 23 -7
0 l19 -22 -31 11 c-20 7 -29 15 -25 22 4 8 1 8 -9 0 -18 -15 -29 -7 -21 15 4
13 3 14 -5 3 -6 -9 -17 -11 -33 -5 -13 4 -27 7 -31 6 -5 -1 -8 2 -8 6 0 4 -8
8 -17 9 -42 3 -61 8 -58 13 7 11 109 -2 117 -14 5 -8 8 -8 8 0 0 16 137 -15
294 -66 156 -51 370 -137 374 -150 2 -6 7 -8 12 -5 5 3 16 -3 26 -12 10 -10
18 -16 18 -14 2 7 76 -20 76 -28 0 -4 10 -7 22 -8 11 -1 24 -6 27 -10 3 -4 31
-20 61 -36 71 -35 113 -60 121 -70 3 -5 15 -10 25 -11 10 -2 18 -9 16 -16 -1
-6 2 -9 8 -5 5 3 23 -3 39 -14 16 -12 34 -21 39 -21 6 0 17 -6 24 -12 18 -17
59 -40 62 -36 2 2 36 66 76 143 40 77 89 172 110 210 20 39 79 151 130 250 51
99 100 194 110 210 10 17 52 98 95 180 142 273 197 379 223 427 20 38 22 50
13 62 -9 11 -4 27 25 80 l36 66 -171 84 c-95 47 -167 87 -161 91 29 18 -2 40
-167 121 -163 79 -207 100 -328 154 -22 9 -61 27 -88 39 -152 68 -476 186
-624 227 -82 23 -283 73 -313 78 -14 2 -64 11 -111 20 -47 8 -113 18 -145 22
-32 3 -72 8 -89 11 -34 6 -484 11 -500 7z"/>
<path d="M3606 6082 c-3 -5 1 -9 9 -9 8 0 12 4 9 9 -3 4 -7 8 -9 8 -2 0 -6 -4
-9 -8z"/>
<path d="M4015 5941 c-3 -5 -2 -12 3 -15 5 -3 9 1 9 9 0 17 -3 19 -12 6z"/>
<path d="M4150 5879 c-13 -9 -13 -10 1 -6 9 3 23 0 30 -6 11 -10 11 -9 0 6 -7
9 -14 17 -15 17 0 0 -8 -5 -16 -11z"/>
<path d="M4270 5836 c0 -2 8 -10 18 -17 15 -13 16 -12 3 4 -13 16 -21 21 -21
13z"/>
<path d="M4550 5656 c7 -7 13 -7 20 0 6 6 3 10 -10 10 -13 0 -16 -4 -10 -10z"/>
<path d="M4590 5640 c0 -5 5 -10 11 -10 5 0 7 5 4 10 -3 6 -8 10 -11 10 -2 0
-4 -4 -4 -10z"/>
<path d="M4659 5593 c-13 -16 -12 -17 4 -4 9 7 17 15 17 17 0 8 -8 3 -21 -13z"/>
<path d="M4735 5551 c-3 -5 -2 -12 3 -15 5 -3 9 1 9 9 0 17 -3 19 -12 6z"/>
</g>
</svg>
