<svg xmlns="http://www.w3.org/2000/svg" viewBox="0 0 377.12 81.9"><defs><style>.cls-1{fill:#ffed00;}.cls-2{fill:#fff;}</style></defs><g id="Camada_2" data-name="Camada 2"><g id="Camada_1-2" data-name="Camada 1"><path class="cls-1" d="M12.35,51.22Q19.22,60.06,28,60.06a16.11,16.11,0,0,0,8.32-1.94,6.29,6.29,0,0,0,3.26-5.79,6,6,0,0,0-3.86-5.14l-16.56-4A26.18,26.18,0,0,1,6.86,35.39a17.64,17.64,0,0,1-4.63-11.8q0-10.72,7.51-17.16A26,26,0,0,1,27.2,0,32.35,32.35,0,0,1,52.42,11.15L40.75,20.5A16.62,16.62,0,0,0,28,15Q22.83,15,20,17.16a6.33,6.33,0,0,0-2.79,5.15q0,4.29,5.84,6.77l16.64,4q14.85,5.58,14.85,19.3A21.74,21.74,0,0,1,47.7,68.25Q40.85,75.07,28,75.07q-17.5,0-28-15.44Z"/><path class="cls-1" d="M314.32,32.17V72.92h-15V2.14h15v15H325v15Z"/><path class="cls-2" d="M14.82,51.08q5.76,7.43,13.1,7.42a13.59,13.59,0,0,0,7-1.62A5.29,5.29,0,0,0,37.64,52,5.05,5.05,0,0,0,34.4,47.7L20.5,44.31A21.89,21.89,0,0,1,10.21,37.8a14.82,14.82,0,0,1-3.89-9.9q0-9,6.3-14.4A21.82,21.82,0,0,1,27.27,8.1a27.13,27.13,0,0,1,21.17,9.36l-9.79,7.85A13.94,13.94,0,0,0,27.92,20.7a10.73,10.73,0,0,0-6.66,1.8,5.32,5.32,0,0,0-2.34,4.32c0,2.4,1.63,4.29,4.9,5.69l14,3.31Q50.24,40.5,50.24,52a18.22,18.22,0,0,1-5.76,13.35Q38.72,71.1,27.92,71.1q-14.69,0-23.47-13Z"/><path class="cls-2" d="M98,63.68a25.2,25.2,0,0,1-35.68,0A24.28,24.28,0,0,1,54.92,45.9,24.28,24.28,0,0,1,62.3,28.08,25.3,25.3,0,0,1,98,28L89.05,37a12.3,12.3,0,0,0-8.93-3.67,12.53,12.53,0,0,0-12.6,12.6,12.57,12.57,0,0,0,21.53,8.85Z"/><path class="cls-2" d="M137.72,68.72a25.37,25.37,0,0,1-28.62-5,24.28,24.28,0,0,1-7.38-17.82,24.28,24.28,0,0,1,7.38-17.82,25.41,25.41,0,0,1,28.62-5V22.5h12.6V69.3h-12.6Zm0-16.34v-13A12.66,12.66,0,0,0,135.85,37a12.3,12.3,0,0,0-8.93-3.67,12.53,12.53,0,0,0-12.6,12.6,12.57,12.57,0,0,0,21.53,8.85A12.92,12.92,0,0,0,137.72,52.38Z"/><path class="cls-2" d="M184.52,33.3A12.16,12.16,0,0,0,175.59,37a12.66,12.66,0,0,0-1.87,2.38V69.3h-12.6V22.5h12.6v.57a24.43,24.43,0,0,1,10.8-2.37Z"/><path class="cls-2" d="M206.05,81.9h-12.6V22.5h12.6v.57a25.25,25.25,0,0,1,36,22.83,24.28,24.28,0,0,1-7.38,17.82,25.37,25.37,0,0,1-28.62,5Zm0-29.45a17,17,0,0,0,1.87,2.38,12.64,12.64,0,0,0,21.53-8.93A12.63,12.63,0,0,0,207.92,37a12.66,12.66,0,0,0-1.87,2.38Z"/><path class="cls-2" d="M281.72,68.72a25.24,25.24,0,0,1-36-22.82,24.28,24.28,0,0,1,7.38-17.82,25.41,25.41,0,0,1,28.62-5V22.5h12.6V69.3h-12.6Zm0-16.34v-13A12.66,12.66,0,0,0,279.85,37a12.3,12.3,0,0,0-8.93-3.67,12.53,12.53,0,0,0-12.6,12.6,12.57,12.57,0,0,0,21.53,8.85A12.92,12.92,0,0,0,281.72,52.38Z"/><path class="cls-2" d="M317.72,35.1V69.3h-12.6V9.9h12.6V22.5h9V35.1Z"/><path class="cls-2" d="M369.74,28.08a24.28,24.28,0,0,1,7.38,17.82,24.28,24.28,0,0,1-7.38,17.82,25.2,25.2,0,0,1-35.64,0,24.28,24.28,0,0,1-7.38-17.82,24.28,24.28,0,0,1,7.38-17.82,25.2,25.2,0,0,1,35.64,0ZM351.92,33.3a12.53,12.53,0,0,0-12.6,12.6A12.6,12.6,0,1,0,360.81,37,12.16,12.16,0,0,0,351.92,33.3Z"/></g></g></svg>